{
  "accessors": [
    {
      "bufferView": 2,
      "componentType": 5126,
      "count": 65532,
      "max": [
        340.1683654785156,
        46.33500671386719,
        521.1646728515625
      ],
      "min": [
        -270.2160949707031,
        -23.152420043945313,
        -5.921477794647217
      ],
      "type": "VEC3"
    },
    {
      "bufferView": 2,
      "byteOffset": 786384,
      "componentType": 5126,
      "count": 65532,
      "max": [
        0.9999259114265442,
        0.9999988675117493,
        0.9999935030937195
      ],
      "min": [
        -0.9999686479568481,
        -0.9999995231628418,
        -0.999987781047821
      ],
      "type": "VEC3"
    },
    {
      "bufferView": 1,
      "componentType": 5126,
      "count": 65532,
      "max": [
        0.9062169790267944,
        0.9937729835510254
      ],
      "min": [
        0.005003000143915415,
        0.0019990000873804092
      ],
      "type": "VEC2"
    },
    {
      "bufferView": 0,
      "componentType": 5125,
      "count": 325236,
      "type": "SCALAR"
    },
    {
      "bufferView": 2,
      "byteOffset": 1572768,
      "componentType": 5126,
      "count": 65532,
      "max": [
        338.9673156738281,
        52.27488708496094,
        523.1806640625
      ],
      "min": [
        -268.2754211425781,
        -22.535110473632813,
        -6.560059070587158
      ],
      "type": "VEC3"
    },
    {
      "bufferView": 2,
      "byteOffset": 2359152,
      "componentType": 5126,
      "count": 65532,
      "max": [
        0.9999904632568359,
        0.999999463558197,
        0.9999605417251587
      ],
      "min": [
        -0.9999963045120239,
        -0.9999988675117493,
        -0.9999993443489075
      ],
      "type": "VEC3"
    },
    {
      "bufferView": 1,
      "byteOffset": 524256,
      "componentType": 5126,
      "count": 65532,
      "max": [
        0.9379410147666931,
        0.9895449876785278
      ],
      "min": [
        0.009348999708890915,
        0.0019920000340789557
      ],
      "type": "VEC2"
    },
    {
      "bufferView": 0,
      "byteOffset": 1300944,
      "componentType": 5125,
      "count": 313107,
      "type": "SCALAR"
    },
    {
      "bufferView": 2,
      "byteOffset": 3145536,
      "componentType": 5126,
      "count": 65532,
      "max": [
        334.3911437988281,
        51.47520446777344,
        528.3007202148438
      ],
      "min": [
        -265.92755126953125,
        -23.663436889648438,
        -3.541137933731079
      ],
      "type": "VEC3"
    },
    {
      "bufferView": 2,
      "byteOffset": 3931920,
      "componentType": 5126,
      "count": 65532,
      "max": [
        0.999999463558197,
        0.9999995827674866,
        0.9999985098838806
      ],
      "min": [
        -0.9999336004257202,
        -0.999999463558197,
        -0.9999990463256836
      ],
      "type": "VEC3"
    },
    {
      "bufferView": 1,
      "byteOffset": 1048512,
      "componentType": 5126,
      "count": 65532,
      "max": [
        0.9524449706077576,
        0.985256016254425
      ],
      "min": [
        0.0019039999460801482,
        0.0019920000340789557
      ],
      "type": "VEC2"
    },
    {
      "bufferView": 0,
      "byteOffset": 2553372,
      "componentType": 5125,
      "count": 319521,
      "type": "SCALAR"
    },
    {
      "bufferView": 2,
      "byteOffset": 4718304,
      "componentType": 5126,
      "count": 65532,
      "max": [
        293.3598327636719,
        51.02702331542969,
        479.203125
      ],
      "min": [
        -262.735107421875,
        -20.29669189453125,
        77.56588745117188
      ],
      "type": "VEC3"
    },
    {
      "bufferView": 2,
      "byteOffset": 5504688,
      "componentType": 5126,
      "count": 65532,
      "max": [
        0.9998031258583069,
        0.9999992847442627,
        0.9121690392494202
      ],
      "min": [
        -0.9999988079071045,
        -0.9999998807907104,
        -0.9457721710205078
      ],
      "type": "VEC3"
    },
    {
      "bufferView": 1,
      "byteOffset": 1572768,
      "componentType": 5126,
      "count": 65532,
      "max": [
        0.9525769948959351,
        0.7546390295028687
      ],
      "min": [
        0.0057379999198019505,
        0.029712999239563942
      ],
      "type": "VEC2"
    },
    {
      "bufferView": 0,
      "byteOffset": 3831456,
      "componentType": 5125,
      "count": 363237,
      "type": "SCALAR"
    },
    {
      "bufferView": 2,
      "byteOffset": 6291072,
      "componentType": 5126,
      "count": 65532,
      "max": [
        334.2537536621094,
        51.23033142089844,
        486.515380859375
      ],
      "min": [
        -270.0743103027344,
        -21.546157836914063,
        9.98712158203125
      ],
      "type": "VEC3"
    },
    {
      "bufferView": 2,
      "byteOffset": 7077456,
      "componentType": 5126,
      "count": 65532,
      "max": [
        0.9999963045120239,
        0.9999999403953552,
        0.999997615814209
      ],
      "min": [
        -0.999998927116394,
        -0.9999979138374329,
        -0.9999775886535645
      ],
      "type": "VEC3"
    },
    {
      "bufferView": 1,
      "byteOffset": 2097024,
      "componentType": 5126,
      "count": 65532,
      "max": [
        0.8999249935150146,
        0.9076629877090454
      ],
      "min": [
        0.00953999999910593,
        0.002696000039577484
      ],
      "type": "VEC2"
    },
    {
      "bufferView": 0,
      "byteOffset": 5284404,
      "componentType": 5125,
      "count": 350904,
      "type": "SCALAR"
    },
    {
      "bufferView": 2,
      "byteOffset": 7863840,
      "componentType": 5126,
      "count": 65532,
      "max": [
        340.4452209472656,
        50.99650573730469,
        526.1521606445313
      ],
      "min": [
        -268.72991943359375,
        -23.006759643554688,
        -5.334136962890625
      ],
      "type": "VEC3"
    },
    {
      "bufferView": 2,
      "byteOffset": 8650224,
      "componentType": 5126,
      "count": 65532,
      "max": [
        0.9999997019767761,
        1.0,
        0.9999994039535522
      ],
      "min": [
        -0.999998927116394,
        -0.9999997019767761,
        -0.9999986886978149
      ],
      "type": "VEC3"
    },
    {
      "bufferView": 1,
      "byteOffset": 2621280,
      "componentType": 5126,
      "count": 65532,
      "max": [
        0.9537690281867981,
        0.9895430207252502
      ],
      "min": [
        0.0031620000954717398,
        0.0019920000340789557
      ],
      "type": "VEC2"
    },
    {
      "bufferView": 0,
      "byteOffset": 6688020,
      "componentType": 5125,
      "count": 338769,
      "type": "SCALAR"
    },
    {
      "bufferView": 2,
      "byteOffset": 9436608,
      "componentType": 5126,
      "count": 65532,
      "max": [
        339.72430419921875,
        51.90086364746094,
        527.9854736328125
      ],
      "min": [
        -270.5683288574219,
        -21.535356521606445,
        -6.560059070587158
      ],
      "type": "VEC3"
    },
    {
      "bufferView": 2,
      "byteOffset": 10222992,
      "componentType": 5126,
      "count": 65532,
      "max": [
        0.9999997019767761,
        0.9999998211860657,
        0.9999985098838806
      ],
      "min": [
        -0.9999997615814209,
        -0.9999988675117493,
        -0.9999991059303284
      ],
      "type": "VEC3"
    },
    {
      "bufferView": 1,
      "byteOffset": 3145536,
      "componentType": 5126,
      "count": 65532,
      "max": [
        0.9537690281867981,
        0.9937689900398254
      ],
      "min": [
        0.00278700003400445,
        0.0019920000340789557
      ],
      "type": "VEC2"
    },
    {
      "bufferView": 0,
      "byteOffset": 8043096,
      "componentType": 5125,
      "count": 328482,
      "type": "SCALAR"
    },
    {
      "bufferView": 2,
      "byteOffset": 11009376,
      "componentType": 5126,
      "count": 65532,
      "max": [
        339.8033447265625,
        50.89268493652344,
        528.0379638671875
      ],
      "min": [
        -269.97442626953125,
        -24.377304077148438,
        -6.4862518310546875
      ],
      "type": "VEC3"
    },
    {
      "bufferView": 2,
      "byteOffset": 11795760,
      "componentType": 5126,
      "count": 65532,
      "max": [
        0.9999974370002747,
        0.9999998807907104,
        0.9999973177909851
      ],
      "min": [
        -0.9999994039535522,
        -0.9999988079071045,
        -0.9999993443489075
      ],
      "type": "VEC3"
    },
    {
      "bufferView": 1,
      "byteOffset": 3669792,
      "componentType": 5126,
      "count": 65532,
      "max": [
        0.9537690281867981,
        0.9937779903411865
      ],
      "min": [
        0.001993000041693449,
        0.0019920000340789557
      ],
      "type": "VEC2"
    },
    {
      "bufferView": 0,
      "byteOffset": 9357024,
      "componentType": 5125,
      "count": 327711,
      "type": "SCALAR"
    },
    {
      "bufferView": 2,
      "byteOffset": 12582144,
      "componentType": 5126,
      "count": 65532,
      "max": [
        339.300048828125,
        46.69340515136719,
        528.1514892578125
      ],
      "min": [
        -268.2320861816406,
        -22.703779220581055,
        75.50030517578125
      ],
      "type": "VEC3"
    },
    {
      "bufferView": 2,
      "byteOffset": 13368528,
      "componentType": 5126,
      "count": 65532,
      "max": [
        0.9999894499778748,
        0.9999989867210388,
        0.9999864101409912
      ],
      "min": [
        -0.9999935626983643,
        -0.9999990463256836,
        -0.9999616742134094
      ],
      "type": "VEC3"
    },
    {
      "bufferView": 1,
      "byteOffset": 4194048,
      "componentType": 5126,
      "count": 65532,
      "max": [
        0.9537690281867981,
        0.9828630089759827
      ],
      "min": [
        0.0019039999460801482,
        0.0025969999842345715
      ],
      "type": "VEC2"
    },
    {
      "bufferView": 0,
      "byteOffset": 10667868,
      "componentType": 5125,
      "count": 331746,
      "type": "SCALAR"
    },
    {
      "bufferView": 2,
      "byteOffset": 14154912,
      "componentType": 5126,
      "count": 65532,
      "max": [
        339.4438171386719,
        51.4776496887207,
        526.0696411132813
      ],
      "min": [
        -270.36517333984375,
        -23.863021850585938,
        -5.78662109375
      ],
      "type": "VEC3"
    },
    {
      "bufferView": 2,
      "byteOffset": 14941296,
      "componentType": 5126,
      "count": 65532,
      "max": [
        0.9999959468841553,
        1.0,
        0.9999999403953552
      ],
      "min": [
        -0.9999998807907104,
        -0.9999994039535522,
        -0.9999991059303284
      ],
      "type": "VEC3"
    },
    {
      "bufferView": 1,
      "byteOffset": 4718304,
      "componentType": 5126,
      "count": 65532,
      "max": [
        0.9537690281867981,
        0.9936349987983704
      ],
      "min": [
        0.0019039999460801482,
        0.0023759999312460423
      ],
      "type": "VEC2"
    },
    {
      "bufferView": 0,
      "byteOffset": 11994852,
      "componentType": 5125,
      "count": 311193,
      "type": "SCALAR"
    },
    {
      "bufferView": 2,
      "byteOffset": 15727680,
      "componentType": 5126,
      "count": 65532,
      "max": [
        340.2217712402344,
        51.72422790527344,
        527.6665649414063
      ],
      "min": [
        -269.7684326171875,
        -23.557357788085938,
        -6.927947998046875
      ],
      "type": "VEC3"
    },
    {
      "bufferView": 2,
      "byteOffset": 16514064,
      "componentType": 5126,
      "count": 65532,
      "max": [
        0.9999926686286926,
        0.9999998211860657,
        0.9999982118606567
      ],
      "min": [
        -0.999998927116394,
        -0.9999995231628418,
        -0.9999992847442627
      ],
      "type": "VEC3"
    },
    {
      "bufferView": 1,
      "byteOffset": 5242560,
      "componentType": 5126,
      "count": 65532,
      "max": [
        0.9537690281867981,
        0.997996985912323
      ],
      "min": [
        0.0019039999460801482,
        0.0019920000340789557
      ],
      "type": "VEC2"
    },
    {
      "bufferView": 0,
      "byteOffset": 13239624,
      "componentType": 5125,
      "count": 276597,
      "type": "SCALAR"
    },
    {
      "bufferView": 2,
      "byteOffset": 17300448,
      "componentType": 5126,
      "count": 65532,
      "max": [
        339.6835021972656,
        52.27488708496094,
        528.24072265625
      ],
      "min": [
        -270.22576904296875,
        -24.063735961914063,
        -6.81097412109375
      ],
      "type": "VEC3"
    },
    {
      "bufferView": 2,
      "byteOffset": 18086832,
      "componentType": 5126,
      "count": 65532,
      "max": [
        0.9999923706054688,
        0.9999997615814209,
        0.9999979734420776
      ],
      "min": [
        -0.9999990463256836,
        -0.9999990463256836,
        -0.9999985694885254
      ],
      "type": "VEC3"
    },
    {
      "bufferView": 1,
      "byteOffset": 5766816,
      "componentType": 5126,
      "count": 65532,
      "max": [
        0.9537690281867981,
        0.9979910254478455
      ],
      "min": [
        0.0019039999460801482,
        0.0019920000340789557
      ],
      "type": "VEC2"
    },
    {
      "bufferView": 0,
      "byteOffset": 14346012,
      "componentType": 5125,
      "count": 207345,
      "type": "SCALAR"
    },
    {
      "bufferView": 2,
      "byteOffset": 18873216,
      "componentType": 5126,
      "count": 65533,
      "max": [
        340.0432434082031,
        52.00148010253906,
        527.630859375
      ],
      "min": [
        -270.5246276855469,
        -23.841659545898438,
        -6.712799072265625
      ],
      "type": "VEC3"
    },
    {
      "bufferView": 2,
      "byteOffset": 19659612,
      "componentType": 5126,
      "count": 65533,
      "max": [
        0.9999964833259583,
        0.9999994039535522,
        0.9999994039535522
      ],
      "min": [
        -0.9999991655349731,
        -0.9999966621398926,
        -0.9999991059303284
      ],
      "type": "VEC3"
    },
    {
      "bufferView": 1,
      "byteOffset": 6291072,
      "componentType": 5126,
      "count": 65533,
      "max": [
        0.9537690281867981,
        0.9980080127716064
      ],
      "min": [
        0.0019039999460801482,
        0.0019920000340789557
      ],
      "type": "VEC2"
    },
    {
      "bufferView": 0,
      "byteOffset": 15175392,
      "componentType": 5125,
      "count": 145845,
      "type": "SCALAR"
    },
    {
      "bufferView": 2,
      "byteOffset": 20446008,
      "componentType": 5126,
      "count": 2060,
      "max": [
        294.1653137207031,
        51.33448791503906,
        527.910400390625
      ],
      "min": [
        -266.744384765625,
        -23.417219161987305,
        -3.2220311164855957
      ],
      "type": "VEC3"
    },
    {
      "bufferView": 2,
      "byteOffset": 20470728,
      "componentType": 5126,
      "count": 2060,
      "max": [
        0.9928792715072632,
        0.9999986886978149,
        0.9999468326568604
      ],
      "min": [
        -0.99997478723526,
        -0.9999632835388184,
        -0.9999801516532898
      ],
      "type": "VEC3"
    },
    {
      "bufferView": 1,
      "byteOffset": 6815336,
      "componentType": 5126,
      "count": 2060,
      "max": [
        0.9528120160102844,
        0.9980069994926453
      ],
      "min": [
        0.0019039999460801482,
        0.032099999487400055
      ],
      "type": "VEC2"
    },
    {
      "bufferView": 0,
      "byteOffset": 15758772,
      "componentType": 5125,
      "count": 3513,
      "type": "SCALAR"
    }
  ],
  "asset": {
    "extras": {
      "author": "IUPUI University Library (https://sketchfab.com/iupuiul)",
      "license": "CC-BY-4.0 (http://creativecommons.org/licenses/by/4.0/)",
      "source": "https://sketchfab.com/3d-models/photo-of-drum-corps-framed-46998386ab374ee1a9f3924f070212c1",
      "title": "Photo of Drum Corps Framed"
    },
    "generator": "Sketchfab-12.68.0",
    "version": "2.0"
  },
  "bufferViews": [
    {
      "buffer": 0,
      "byteLength": 15772824,
      "name": "floatBufferViews",
      "target": 34963
    },
    {
      "buffer": 0,
      "byteLength": 6831816,
      "byteOffset": 15772824,
      "byteStride": 8,
      "name": "floatBufferViews",
      "target": 34962
    },
    {
      "buffer": 0,
      "byteLength": 20495448,
      "byteOffset": 22604640,
      "byteStride": 12,
      "name": "floatBufferViews",
      "target": 34962
    }
  ],
  "buffers": [
    {
      "byteLength": 43100088,
      "uri": "scene.bin"
    }
  ],
  "images": [
    {
      "uri": "textures/material_0_baseColor.png"
    }
  ],
  "materials": [
    {
      "doubleSided": true,
      "name": "material_0",
      "pbrMetallicRoughness": {
        "baseColorTexture": {
          "index": 0
        },
        "metallicFactor": 0.0,
        "roughnessFactor": 0.34927591463414637
      }
    }
  ],
  "meshes": [
    {
      "name": "Object_0",
      "primitives": [
        {
          "attributes": {
            "NORMAL": 1,
            "POSITION": 0,
            "TEXCOORD_0": 2
          },
          "indices": 3,
          "material": 0,
          "mode": 4
        }
      ]
    },
    {
      "name": "Object_1",
      "primitives": [
        {
          "attributes": {
            "NORMAL": 5,
            "POSITION": 4,
            "TEXCOORD_0": 6
          },
          "indices": 7,
          "material": 0,
          "mode": 4
        }
      ]
    },
    {
      "name": "Object_2",
      "primitives": [
        {
          "attributes": {
            "NORMAL": 9,
            "POSITION": 8,
            "TEXCOORD_0": 10
          },
          "indices": 11,
          "material": 0,
          "mode": 4
        }
      ]
    },
    {
      "name": "Object_3",
      "primitives": [
        {
          "attributes": {
            "NORMAL": 13,
            "POSITION": 12,
            "TEXCOORD_0": 14
          },
          "indices": 15,
          "material": 0,
          "mode": 4
        }
      ]
    },
    {
      "name": "Object_4",
      "primitives": [
        {
          "attributes": {
            "NORMAL": 17,
            "POSITION": 16,
            "TEXCOORD_0": 18
          },
          "indices": 19,
          "material": 0,
          "mode": 4
        }
      ]
    },
    {
      "name": "Object_5",
      "primitives": [
        {
          "attributes": {
            "NORMAL": 21,
            "POSITION": 20,
            "TEXCOORD_0": 22
          },
          "indices": 23,
          "material": 0,
          "mode": 4
        }
      ]
    },
    {
      "name": "Object_6",
      "primitives": [
        {
          "attributes": {
            "NORMAL": 25,
            "POSITION": 24,
            "TEXCOORD_0": 26
          },
          "indices": 27,
          "material": 0,
          "mode": 4
        }
      ]
    },
    {
      "name": "Object_7",
      "primitives": [
        {
          "attributes": {
            "NORMAL": 29,
            "POSITION": 28,
            "TEXCOORD_0": 30
          },
          "indices": 31,
          "material": 0,
          "mode": 4
        }
      ]
    },
    {
      "name": "Object_8",
      "primitives": [
        {
          "attributes": {
            "NORMAL": 33,
            "POSITION": 32,
            "TEXCOORD_0": 34
          },
          "indices": 35,
          "material": 0,
          "mode": 4
        }
      ]
    },
    {
      "name": "Object_9",
      "primitives": [
        {
          "attributes": {
            "NORMAL": 37,
            "POSITION": 36,
            "TEXCOORD_0": 38
          },
          "indices": 39,
          "material": 0,
          "mode": 4
        }
      ]
    },
    {
      "name": "Object_10",
      "primitives": [
        {
          "attributes": {
            "NORMAL": 41,
            "POSITION": 40,
            "TEXCOORD_0": 42
          },
          "indices": 43,
          "material": 0,
          "mode": 4
        }
      ]
    },
    {
      "name": "Object_11",
      "primitives": [
        {
          "attributes": {
            "NORMAL": 45,
            "POSITION": 44,
            "TEXCOORD_0": 46
          },
          "indices": 47,
          "material": 0,
          "mode": 4
        }
      ]
    },
    {
      "name": "Object_12",
      "primitives": [
        {
          "attributes": {
            "NORMAL": 49,
            "POSITION": 48,
            "TEXCOORD_0": 50
          },
          "indices": 51,
          "material": 0,
          "mode": 4
        }
      ]
    },
    {
      "name": "Object_13",
      "primitives": [
        {
          "attributes": {
            "NORMAL": 53,
            "POSITION": 52,
            "TEXCOORD_0": 54
          },
          "indices": 55,
          "material": 0,
          "mode": 4
        }
      ]
    }
  ],
  "nodes": [
    {
      "children": [
        1
      ],
      "matrix": [
        1.0,
        0.0,
        0.0,
        0.0,
        0.0,
        2.220446049250313e-16,
        -1.0,
        0.0,
        0.0,
        1.0,
        2.220446049250313e-16,
        0.0,
        0.0,
        0.0,
        0.0,
        1.0
      ],
      "name": "Sketchfab_model"
    },
    {
      "children": [
        2,
        3,
        4,
        5,
        6,
        7,
        8,
        9,
        10,
        11,
        12,
        13,
        14,
        15
      ],
      "name": "BHPS_PhotoDrumpCorpsFramed_HR_Geometry.obj.cleaner.materialmerger.gles"
    },
    {
      "mesh": 0,
      "name": "Object_2"
    },
    {
      "mesh": 1,
      "name": "Object_3"
    },
    {
      "mesh": 2,
      "name": "Object_4"
    },
    {
      "mesh": 3,
      "name": "Object_5"
    },
    {
      "mesh": 4,
      "name": "Object_6"
    },
    {
      "mesh": 5,
      "name": "Object_7"
    },
    {
      "mesh": 6,
      "name": "Object_8"
    },
    {
      "mesh": 7,
      "name": "Object_9"
    },
    {
      "mesh": 8,
      "name": "Object_10"
    },
    {
      "mesh": 9,
      "name": "Object_11"
    },
    {
      "mesh": 10,
      "name": "Object_12"
    },
    {
      "mesh": 11,
      "name": "Object_13"
    },
    {
      "mesh": 12,
      "name": "Object_14"
    },
    {
      "mesh": 13,
      "name": "Object_15"
    }
  ],
  "samplers": [
    {
      "magFilter": 9729,
      "minFilter": 9987,
      "wrapS": 10497,
      "wrapT": 10497
    }
  ],
  "scene": 0,
  "scenes": [
    {
      "name": "Sketchfab_Scene",
      "nodes": [
        0
      ]
    }
  ],
  "textures": [
    {
      "sampler": 0,
      "source": 0
    }
  ]
}
