{
  "accessors": [
    {
      "bufferView": 2,
      "componentType": 5126,
      "count": 24,
      "max": [
        762.0,
        304.79998779296875,
        20.31999969482422
      ],
      "min": [
        -762.0,
        -330.1999816894531,
        -1.1102692951681092e-06
      ],
      "type": "VEC3"
    },
    {
      "bufferView": 2,
      "byteOffset": 288,
      "componentType": 5126,
      "count": 24,
      "max": [
        1.0,
        1.0,
        1.0
      ],
      "min": [
        -1.0,
        -1.0,
        -1.0
      ],
      "type": "VEC3"
    },
    {
      "bufferView": 1,
      "componentType": 5126,
      "count": 24,
      "max": [
        1.0,
        1.0
      ],
      "min": [
        0.0,
        0.0
      ],
      "type": "VEC2"
    },
    {
      "bufferView": 0,
      "componentType": 5125,
      "count": 36,
      "type": "SCALAR"
    },
    {
      "bufferView": 2,
      "byteOffset": 576,
      "componentType": 5126,
      "count": 24,
      "max": [
        762.0,
        75.21312713623047,
        20.0
      ],
      "min": [
        -762.0,
        -304.79998779296875,
        -2.9743099212646484
      ],
      "type": "VEC3"
    },
    {
      "bufferView": 2,
      "byteOffset": 864,
      "componentType": 5126,
      "count": 24,
      "max": [
        1.0,
        1.0,
        0.9999694228172302
      ],
      "min": [
        -1.0,
        -1.0,
        -0.9999694228172302
      ],
      "type": "VEC3"
    },
    {
      "bufferView": 1,
      "byteOffset": 192,
      "componentType": 5126,
      "count": 24,
      "max": [
        1.0,
        0.9999999403953552
      ],
      "min": [
        -5.960464477539063e-08,
        0.0
      ],
      "type": "VEC2"
    },
    {
      "bufferView": 0,
      "byteOffset": 144,
      "componentType": 5125,
      "count": 36,
      "type": "SCALAR"
    },
    {
      "bufferView": 2,
      "byteOffset": 1152,
      "componentType": 5126,
      "count": 36,
      "max": [
        36.30853271484375,
        122.44888305664063,
        20.31999969482422
      ],
      "min": [
        -39.835723876953125,
        -61.22444534301758,
        -1.16980643921627e-13
      ],
      "type": "VEC3"
    },
    {
      "bufferView": 2,
      "byteOffset": 1584,
      "componentType": 5126,
      "count": 36,
      "max": [
        0.9844437837600708,
        1.0,
        1.0
      ],
      "min": [
        -1.0,
        -1.0,
        -1.0
      ],
      "type": "VEC3"
    },
    {
      "bufferView": 0,
      "byteOffset": 288,
      "componentType": 5125,
      "count": 60,
      "type": "SCALAR"
    },
    {
      "bufferView": 2,
      "byteOffset": 2016,
      "componentType": 5126,
      "count": 48,
      "max": [
        266.7000427246094,
        116.36994171142578,
        20.32000732421875
      ],
      "min": [
        -266.69989013671875,
        -116.36996459960938,
        -6.988992481637979e-06
      ],
      "type": "VEC3"
    },
    {
      "bufferView": 2,
      "byteOffset": 2592,
      "componentType": 5126,
      "count": 48,
      "max": [
        1.0,
        1.0,
        1.0
      ],
      "min": [
        -1.0,
        -1.0,
        -1.0
      ],
      "type": "VEC3"
    },
    {
      "bufferView": 0,
      "byteOffset": 528,
      "componentType": 5125,
      "count": 96,
      "type": "SCALAR"
    },
    {
      "bufferView": 2,
      "byteOffset": 3168,
      "componentType": 5126,
      "count": 48,
      "max": [
        266.7000427246094,
        116.36994171142578,
        20.32000732421875
      ],
      "min": [
        -266.69989013671875,
        -116.36996459960938,
        -6.988992481637979e-06
      ],
      "type": "VEC3"
    },
    {
      "bufferView": 2,
      "byteOffset": 3744,
      "componentType": 5126,
      "count": 48,
      "max": [
        1.0,
        1.0,
        1.0
      ],
      "min": [
        -1.0,
        -1.0,
        -1.0
      ],
      "type": "VEC3"
    },
    {
      "bufferView": 0,
      "byteOffset": 912,
      "componentType": 5125,
      "count": 96,
      "type": "SCALAR"
    },
    {
      "bufferView": 2,
      "byteOffset": 4320,
      "componentType": 5126,
      "count": 36,
      "max": [
        36.30853271484375,
        122.44888305664063,
        20.31999969482422
      ],
      "min": [
        -39.835723876953125,
        -61.22444534301758,
        -1.16980643921627e-13
      ],
      "type": "VEC3"
    },
    {
      "bufferView": 2,
      "byteOffset": 4752,
      "componentType": 5126,
      "count": 36,
      "max": [
        0.9844437837600708,
        1.0,
        1.0
      ],
      "min": [
        -1.0,
        -1.0,
        -1.0
      ],
      "type": "VEC3"
    },
    {
      "bufferView": 0,
      "byteOffset": 1296,
      "componentType": 5125,
      "count": 60,
      "type": "SCALAR"
    },
    {
      "bufferView": 2,
      "byteOffset": 5184,
      "componentType": 5126,
      "count": 24,
      "max": [
        266.7000427246094,
        116.36994171142578,
        20.320104598999023
      ],
      "min": [
        246.3800506591797,
        -976.3816528320313,
        -6.988992481637979e-06
      ],
      "type": "VEC3"
    },
    {
      "bufferView": 2,
      "byteOffset": 5472,
      "componentType": 5126,
      "count": 24,
      "max": [
        1.0,
        1.0,
        1.0
      ],
      "min": [
        -1.0,
        -1.0,
        -1.0
      ],
      "type": "VEC3"
    },
    {
      "bufferView": 0,
      "byteOffset": 1536,
      "componentType": 5125,
      "count": 36,
      "type": "SCALAR"
    },
    {
      "bufferView": 2,
      "byteOffset": 5760,
      "componentType": 5126,
      "count": 24,
      "max": [
        266.7000427246094,
        116.36994171142578,
        20.320104598999023
      ],
      "min": [
        246.3800506591797,
        -976.3816528320313,
        -6.988992481637979e-06
      ],
      "type": "VEC3"
    },
    {
      "bufferView": 2,
      "byteOffset": 6048,
      "componentType": 5126,
      "count": 24,
      "max": [
        1.0,
        1.0,
        1.0
      ],
      "min": [
        -1.0,
        -1.0,
        -1.0
      ],
      "type": "VEC3"
    },
    {
      "bufferView": 0,
      "byteOffset": 1680,
      "componentType": 5125,
      "count": 36,
      "type": "SCALAR"
    },
    {
      "bufferView": 2,
      "byteOffset": 6336,
      "componentType": 5126,
      "count": 559,
      "max": [
        5.079988479614258,
        5.079988479614258,
        5.079988479614258
      ],
      "min": [
        -5.079988479614258,
        -5.079988479614258,
        -5.079988479614258
      ],
      "type": "VEC3"
    },
    {
      "bufferView": 2,
      "byteOffset": 13044,
      "componentType": 5126,
      "count": 559,
      "max": [
        1.0,
        1.0,
        1.0
      ],
      "min": [
        -1.0,
        -1.0,
        -1.0
      ],
      "type": "VEC3"
    },
    {
      "bufferView": 1,
      "byteOffset": 384,
      "componentType": 5126,
      "count": 559,
      "max": [
        1.000000238418579,
        1.0
      ],
      "min": [
        0.0,
        -1.1920928955078125e-07
      ],
      "type": "VEC2"
    },
    {
      "bufferView": 0,
      "byteOffset": 1824,
      "componentType": 5125,
      "count": 2880,
      "type": "SCALAR"
    },
    {
      "bufferView": 2,
      "byteOffset": 19752,
      "componentType": 5126,
      "count": 559,
      "max": [
        5.079988479614258,
        5.079988479614258,
        5.079988479614258
      ],
      "min": [
        -5.079988479614258,
        -5.079988479614258,
        -5.079988479614258
      ],
      "type": "VEC3"
    },
    {
      "bufferView": 2,
      "byteOffset": 26460,
      "componentType": 5126,
      "count": 559,
      "max": [
        1.0,
        1.0,
        1.0
      ],
      "min": [
        -1.0,
        -1.0,
        -1.0
      ],
      "type": "VEC3"
    },
    {
      "bufferView": 1,
      "byteOffset": 4856,
      "componentType": 5126,
      "count": 559,
      "max": [
        1.000000238418579,
        1.0
      ],
      "min": [
        0.0,
        -1.1920928955078125e-07
      ],
      "type": "VEC2"
    },
    {
      "bufferView": 0,
      "byteOffset": 13344,
      "componentType": 5125,
      "count": 2880,
      "type": "SCALAR"
    },
    {
      "bufferView": 2,
      "byteOffset": 33168,
      "componentType": 5126,
      "count": 559,
      "max": [
        5.079988479614258,
        5.079988479614258,
        5.079988479614258
      ],
      "min": [
        -5.079988479614258,
        -5.079988479614258,
        -5.079988479614258
      ],
      "type": "VEC3"
    },
    {
      "bufferView": 2,
      "byteOffset": 39876,
      "componentType": 5126,
      "count": 559,
      "max": [
        1.0,
        1.0,
        1.0
      ],
      "min": [
        -1.0,
        -1.0,
        -1.0
      ],
      "type": "VEC3"
    },
    {
      "bufferView": 1,
      "byteOffset": 9328,
      "componentType": 5126,
      "count": 559,
      "max": [
        1.000000238418579,
        1.0
      ],
      "min": [
        0.0,
        -1.1920928955078125e-07
      ],
      "type": "VEC2"
    },
    {
      "bufferView": 0,
      "byteOffset": 24864,
      "componentType": 5125,
      "count": 2880,
      "type": "SCALAR"
    },
    {
      "bufferView": 2,
      "byteOffset": 46584,
      "componentType": 5126,
      "count": 559,
      "max": [
        5.079988479614258,
        5.079988479614258,
        5.079988479614258
      ],
      "min": [
        -5.079988479614258,
        -5.079988479614258,
        -5.079988479614258
      ],
      "type": "VEC3"
    },
    {
      "bufferView": 2,
      "byteOffset": 53292,
      "componentType": 5126,
      "count": 559,
      "max": [
        1.0,
        1.0,
        1.0
      ],
      "min": [
        -1.0,
        -1.0,
        -1.0
      ],
      "type": "VEC3"
    },
    {
      "bufferView": 1,
      "byteOffset": 13800,
      "componentType": 5126,
      "count": 559,
      "max": [
        1.000000238418579,
        1.0
      ],
      "min": [
        0.0,
        -1.1920928955078125e-07
      ],
      "type": "VEC2"
    },
    {
      "bufferView": 0,
      "byteOffset": 36384,
      "componentType": 5125,
      "count": 2880,
      "type": "SCALAR"
    },
    {
      "bufferView": 2,
      "byteOffset": 60000,
      "componentType": 5126,
      "count": 3629,
      "max": [
        685.8001098632813,
        268.74267578125,
        114.30001831054688
      ],
      "min": [
        -685.7999877929688,
        -274.15625,
        -1.6689300537109375e-05
      ],
      "type": "VEC3"
    },
    {
      "bufferView": 2,
      "byteOffset": 103548,
      "componentType": 5126,
      "count": 3629,
      "max": [
        1.0,
        0.9999983906745911,
        1.0
      ],
      "min": [
        -1.0,
        -1.0,
        -1.0
      ],
      "type": "VEC3"
    },
    {
      "bufferView": 1,
      "byteOffset": 18272,
      "componentType": 5126,
      "count": 3629,
      "max": [
        1.0370445251464844,
        0.682796835899353
      ],
      "min": [
        -0.03704458475112915,
        0.2650783658027649
      ],
      "type": "VEC2"
    },
    {
      "bufferView": 0,
      "byteOffset": 47904,
      "componentType": 5125,
      "count": 19968,
      "type": "SCALAR"
    },
    {
      "bufferView": 2,
      "byteOffset": 147096,
      "componentType": 5126,
      "count": 3624,
      "max": [
        685.8001098632813,
        259.9416809082031,
        114.30001831054688
      ],
      "min": [
        -685.7999877929688,
        -53.001304626464844,
        -1.6689300537109375e-05
      ],
      "type": "VEC3"
    },
    {
      "bufferView": 2,
      "byteOffset": 190584,
      "componentType": 5126,
      "count": 3624,
      "max": [
        1.0,
        1.0,
        1.0
      ],
      "min": [
        -1.0,
        -1.0,
        -1.0
      ],
      "type": "VEC3"
    },
    {
      "bufferView": 1,
      "byteOffset": 47304,
      "componentType": 5126,
      "count": 3624,
      "max": [
        1.0370445251464844,
        0.7346454858779907
      ],
      "min": [
        -0.0370444655418396,
        0.41603729128837585
      ],
      "type": "VEC2"
    },
    {
      "bufferView": 0,
      "byteOffset": 127776,
      "componentType": 5125,
      "count": 19968,
      "type": "SCALAR"
    }
  ],
  "asset": {
    "extras": {
      "author": "Jeetu1996 (https://sketchfab.com/Jeetu1996)",
      "license": "CC-BY-4.0 (http://creativecommons.org/licenses/by/4.0/)",
      "source": "https://sketchfab.com/3d-models/couch-21934bc49573405a983eeb90e915eaeb",
      "title": "Couch"
    },
    "generator": "Sketchfab-13.17.0",
    "version": "2.0"
  },
  "bufferViews": [
    {
      "buffer": 0,
      "byteLength": 207648,
      "name": "floatBufferViews",
      "target": 34963
    },
    {
      "buffer": 0,
      "byteLength": 76296,
      "byteOffset": 207648,
      "byteStride": 8,
      "name": "floatBufferViews",
      "target": 34962
    },
    {
      "buffer": 0,
      "byteLength": 234072,
      "byteOffset": 283944,
      "byteStride": 12,
      "name": "floatBufferViews",
      "target": 34962
    }
  ],
  "buffers": [
    {
      "byteLength": 518016,
      "uri": "scene.bin"
    }
  ],
  "extensionsUsed": [
    "KHR_texture_transform"
  ],
  "images": [
    {
      "uri": "textures/Solid_Glassds_baseColor.jpeg"
    },
    {
      "uri": "textures/Material_24_baseColor.jpeg"
    }
  ],
  "materials": [
    {
      "doubleSided": true,
      "name": "Solid_Glassds",
      "pbrMetallicRoughness": {
        "baseColorTexture": {
          "index": 0
        },
        "metallicFactor": 0.13257183259987076,
        "roughnessFactor": 0.5165730028891516
      }
    },
    {
      "doubleSided": true,
      "name": "Solid_Glasse",
      "pbrMetallicRoughness": {
        "baseColorFactor": [
          0.0,
          0.0,
          0.0,
          1.0
        ],
        "metallicFactor": 0.46171569284782576,
        "roughnessFactor": 0.19961965598371345
      }
    },
    {
      "doubleSided": true,
      "name": "Material_2146942620deerterd",
      "pbrMetallicRoughness": {
        "baseColorFactor": [
          0.3276200460801404,
          0.3276200460801404,
          0.3276200460801404,
          1.0
        ],
        "metallicFactor": 0.24228645268252244,
        "roughnessFactor": 0.40685838280649994
      }
    },
    {
      "doubleSided": true,
      "name": "Material_24",
      "pbrMetallicRoughness": {
        "baseColorTexture": {
          "extensions": {
            "KHR_texture_transform": {
              "scale": [
                2.0000000000000027,
                2.0000000000000027
              ]
            }
          },
          "index": 1
        },
        "metallicFactor": 0.5531445429167022,
        "roughnessFactor": 0.5714303129304774
      }
    }
  ],
  "meshes": [
    {
      "name": "Rectangle686_Solid Glassds_0",
      "primitives": [
        {
          "attributes": {
            "NORMAL": 1,
            "POSITION": 0,
            "TEXCOORD_0": 2
          },
          "indices": 3,
          "material": 0,
          "mode": 4
        }
      ]
    },
    {
      "name": "Rectangle687_Solid Glassds_0",
      "primitives": [
        {
          "attributes": {
            "NORMAL": 5,
            "POSITION": 4,
            "TEXCOORD_0": 6
          },
          "indices": 7,
          "material": 0,
          "mode": 4
        }
      ]
    },
    {
      "name": "Line005_Solid Glasse_0",
      "primitives": [
        {
          "attributes": {
            "NORMAL": 9,
            "POSITION": 8
          },
          "indices": 10,
          "material": 1,
          "mode": 4
        }
      ]
    },
    {
      "name": "Line007_Solid Glasse_0",
      "primitives": [
        {
          "attributes": {
            "NORMAL": 12,
            "POSITION": 11
          },
          "indices": 13,
          "material": 1,
          "mode": 4
        }
      ]
    },
    {
      "name": "Line008_Solid Glasse_0",
      "primitives": [
        {
          "attributes": {
            "NORMAL": 15,
            "POSITION": 14
          },
          "indices": 16,
          "material": 1,
          "mode": 4
        }
      ]
    },
    {
      "name": "Line009_Solid Glasse_0",
      "primitives": [
        {
          "attributes": {
            "NORMAL": 18,
            "POSITION": 17
          },
          "indices": 19,
          "material": 1,
          "mode": 4
        }
      ]
    },
    {
      "name": "Line012_Solid Glasse_0",
      "primitives": [
        {
          "attributes": {
            "NORMAL": 21,
            "POSITION": 20
          },
          "indices": 22,
          "material": 1,
          "mode": 4
        }
      ]
    },
    {
      "name": "Line013_Solid Glasse_0",
      "primitives": [
        {
          "attributes": {
            "NORMAL": 24,
            "POSITION": 23
          },
          "indices": 25,
          "material": 1,
          "mode": 4
        }
      ]
    },
    {
      "name": "Sphere001_Material #2146942620deerterd_0",
      "primitives": [
        {
          "attributes": {
            "NORMAL": 27,
            "POSITION": 26,
            "TEXCOORD_0": 28
          },
          "indices": 29,
          "material": 2,
          "mode": 4
        }
      ]
    },
    {
      "name": "Sphere002_Material #2146942620deerterd_0",
      "primitives": [
        {
          "attributes": {
            "NORMAL": 31,
            "POSITION": 30,
            "TEXCOORD_0": 32
          },
          "indices": 33,
          "material": 2,
          "mode": 4
        }
      ]
    },
    {
      "name": "Sphere003_Material #2146942620deerterd_0",
      "primitives": [
        {
          "attributes": {
            "NORMAL": 35,
            "POSITION": 34,
            "TEXCOORD_0": 36
          },
          "indices": 37,
          "material": 2,
          "mode": 4
        }
      ]
    },
    {
      "name": "Sphere004_Material #2146942620deerterd_0",
      "primitives": [
        {
          "attributes": {
            "NORMAL": 39,
            "POSITION": 38,
            "TEXCOORD_0": 40
          },
          "indices": 41,
          "material": 2,
          "mode": 4
        }
      ]
    },
    {
      "name": "Box001_Material #24_0",
      "primitives": [
        {
          "attributes": {
            "NORMAL": 43,
            "POSITION": 42,
            "TEXCOORD_0": 44
          },
          "indices": 45,
          "material": 3,
          "mode": 4
        }
      ]
    },
    {
      "name": "Box002_Material #24_0",
      "primitives": [
        {
          "attributes": {
            "NORMAL": 47,
            "POSITION": 46,
            "TEXCOORD_0": 48
          },
          "indices": 49,
          "material": 3,
          "mode": 4
        }
      ]
    }
  ],
  "nodes": [
    {
      "children": [
        1
      ],
      "matrix": [
        1.0,
        0.0,
        0.0,
        0.0,
        0.0,
        2.220446049250313e-16,
        -1.0,
        0.0,
        0.0,
        1.0,
        2.220446049250313e-16,
        0.0,
        0.0,
        0.0,
        0.0,
        1.0
      ],
      "name": "Sketchfab_model"
    },
    {
      "children": [
        2
      ],
      "matrix": [
        0.0010000000474974513,
        0.0,
        0.0,
        0.0,
        0.0,
        0.0,
        0.0010000000474974513,
        0.0,
        0.0,
        -0.0010000000474974513,
        0.0,
        0.0,
        0.0,
        0.0,
        0.0,
        1.0
      ],
      "name": "70555cabebb44d8eb6419975418d37fc.fbx"
    },
    {
      "children": [
        3,
        5,
        7,
        9,
        11,
        13,
        15,
        17,
        19,
        21,
        23,
        25,
        27,
        29
      ],
      "name": "RootNode"
    },
    {
      "children": [
        4
      ],
      "matrix": [
        1.0536279678344727,
        0.0,
        0.0,
        0.0,
        0.0,
        2.220446049250313e-16,
        -1.0,
        0.0,
        0.0,
        1.0,
        2.220446049250313e-16,
        0.0,
        0.92999267578125,
        3.814697265625e-05,
        45.990234375,
        1.0
      ],
      "name": "Rectangle686"
    },
    {
      "mesh": 0,
      "name": "Rectangle686_Solid Glassds_0"
    },
    {
      "children": [
        6
      ],
      "matrix": [
        1.0536279678344727,
        0.0,
        0.0,
        0.0,
        0.0,
        0.9857147958680668,
        -0.16842310176093883,
        0.0,
        0.0,
        0.16842310176093883,
        0.9857147958680668,
        0.0,
        0.9299921989440918,
        317.0774230957031,
        -233.31478881835938,
        1.0
      ],
      "name": "Rectangle687"
    },
    {
      "mesh": 1,
      "name": "Rectangle687_Solid Glassds_0"
    },
    {
      "children": [
        8
      ],
      "matrix": [
        1.6292068460987963e-07,
        0.0,
        0.9999999999999867,
        0.0,
        -4.371138822550499e-08,
        0.999999999999999,
        7.121489295963928e-15,
        0.0,
        -0.9999999999999858,
        -4.371138822550557e-08,
        1.6292068460987963e-07,
        0.0,
        592.8054809570313,
        81.22447967529297,
        -218.9739990234375,
        1.0
      ],
      "name": "Line005"
    },
    {
      "mesh": 2,
      "name": "Line005_Solid Glasse_0"
    },
    {
      "children": [
        10
      ],
      "matrix": [
        1.6292068460987963e-07,
        0.0,
        0.9999999999999867,
        0.0,
        -4.371138822550499e-08,
        0.999999999999999,
        7.121489295963928e-15,
        0.0,
        -0.9999999999999858,
        -4.371138822550557e-08,
        1.6292068460987963e-07,
        0.0,
        567.6257934570313,
        -116.36991119384766,
        58.69025802612305,
        1.0
      ],
      "name": "Line007"
    },
    {
      "mesh": 3,
      "name": "Line007_Solid Glasse_0"
    },
    {
      "children": [
        12
      ],
      "matrix": [
        1.6292068460987963e-07,
        0.0,
        0.9999999999999867,
        0.0,
        -4.371138822550499e-08,
        0.999999999999999,
        7.121489295963928e-15,
        0.0,
        -0.9999999999999858,
        -4.371138822550557e-08,
        1.6292068460987963e-07,
        0.0,
        -545.4457397460938,
        -116.36991119384766,
        58.69025802612305,
        1.0
      ],
      "name": "Line008"
    },
    {
      "mesh": 4,
      "name": "Line008_Solid Glasse_0"
    },
    {
      "children": [
        14
      ],
      "matrix": [
        1.6292068460987963e-07,
        0.0,
        0.9999999999999867,
        0.0,
        -4.371138822550499e-08,
        0.999999999999999,
        7.121489295963928e-15,
        0.0,
        -0.9999999999999858,
        -4.371138822550557e-08,
        1.6292068460987963e-07,
        0.0,
        -571.3666381835938,
        81.22447967529297,
        -218.9739990234375,
        1.0
      ],
      "name": "Line009"
    },
    {
      "mesh": 5,
      "name": "Line009_Solid Glasse_0"
    },
    {
      "children": [
        16
      ],
      "matrix": [
        1.6292068449885733e-07,
        -1.6653345369377348e-16,
        0.9999999999999867,
        0.0,
        -0.9999999999999829,
        -8.742277679552046e-08,
        1.6292068438783502e-07,
        0.0,
        8.742277685103161e-08,
        -0.9999999999999961,
        -1.4432899320127035e-14,
        0.0,
        -429.0758056640625,
        3.0517578125e-05,
        58.69026184082031,
        1.0
      ],
      "name": "Line012"
    },
    {
      "mesh": 6,
      "name": "Line012_Solid Glasse_0"
    },
    {
      "children": [
        18
      ],
      "matrix": [
        1.6292068449885733e-07,
        -1.6653345369377348e-16,
        0.9999999999999867,
        0.0,
        -0.9999999999999829,
        -8.742277679552046e-08,
        1.6292068438783502e-07,
        0.0,
        8.742277685103161e-08,
        -0.9999999999999961,
        -1.4432899320127035e-14,
        0.0,
        -429.0757751464844,
        5.294501897878945e-05,
        -454.3898010253906,
        1.0
      ],
      "name": "Line013"
    },
    {
      "mesh": 7,
      "name": "Line013_Solid Glasse_0"
    },
    {
      "children": [
        20
      ],
      "matrix": [
        -0.9999999999999469,
        1.2246467864107189e-16,
        -3.2584136956426275e-07,
        0.0,
        5.805490455523403e-08,
        0.9839998613326426,
        -0.17816922544967417,
        0.0,
        2.2252374584329517e-07,
        -0.1236538931414845,
        -0.6829204841484693,
        0.0,
        -581.5266723632813,
        66.67499542236328,
        -196.13143920898438,
        1.0
      ],
      "name": "Sphere001"
    },
    {
      "mesh": 8,
      "name": "Sphere001_Material #2146942620deerterd_0"
    },
    {
      "children": [
        22
      ],
      "matrix": [
        -0.9999999999999469,
        1.2246467864107189e-16,
        -3.2584136956426275e-07,
        0.0,
        5.805490455523403e-08,
        0.9839998613326426,
        -0.17816922544967417,
        0.0,
        2.2252374584329517e-07,
        -0.1236538931414845,
        -0.6829204841484693,
        0.0,
        -581.5266723632813,
        165.90673828125,
        -213.88446044921875,
        1.0
      ],
      "name": "Sphere002"
    },
    {
      "mesh": 9,
      "name": "Sphere002_Material #2146942620deerterd_0"
    },
    {
      "children": [
        24
      ],
      "matrix": [
        -0.9999999999999469,
        1.2246467864107189e-16,
        -3.2584136956426275e-07,
        0.0,
        5.805490455523403e-08,
        0.9839998613326426,
        -0.17816922544967417,
        0.0,
        2.2252374584329517e-07,
        -0.1236538931414845,
        -0.6829204841484693,
        0.0,
        582.6454467773438,
        66.67499542236328,
        -196.13143920898438,
        1.0
      ],
      "name": "Sphere003"
    },
    {
      "mesh": 10,
      "name": "Sphere003_Material #2146942620deerterd_0"
    },
    {
      "children": [
        26
      ],
      "matrix": [
        -0.9999999999999469,
        1.2246467864107189e-16,
        -3.2584136956426275e-07,
        0.0,
        5.805490455523403e-08,
        0.9839998613326426,
        -0.17816922544967417,
        0.0,
        2.2252374584329517e-07,
        -0.1236538931414845,
        -0.6829204841484693,
        0.0,
        582.6454467773438,
        165.90673828125,
        -213.88446044921875,
        1.0
      ],
      "name": "Sphere004"
    },
    {
      "mesh": 11,
      "name": "Sphere004_Material #2146942620deerterd_0"
    },
    {
      "children": [
        28
      ],
      "matrix": [
        1.0,
        0.0,
        0.0,
        0.0,
        0.0,
        2.220446049250313e-16,
        -1.0,
        0.0,
        0.0,
        1.0,
        2.220446049250313e-16,
        0.0,
        0.92999267578125,
        20.320051193237305,
        102.03396606445313,
        1.0
      ],
      "name": "Box001"
    },
    {
      "mesh": 12,
      "name": "Box001_Material #24_0"
    },
    {
      "children": [
        30
      ],
      "matrix": [
        1.0,
        0.0,
        0.0,
        0.0,
        0.0,
        0.9848478370286201,
        -0.17342069628521437,
        0.0,
        0.0,
        0.17342069628521437,
        0.9848478370286201,
        0.0,
        0.9300053119659424,
        173.06065368652344,
        -188.1197509765625,
        1.0
      ],
      "name": "Box002"
    },
    {
      "mesh": 13,
      "name": "Box002_Material #24_0"
    }
  ],
  "samplers": [
    {
      "magFilter": 9729,
      "minFilter": 9987,
      "wrapS": 10497,
      "wrapT": 10497
    }
  ],
  "scene": 0,
  "scenes": [
    {
      "name": "Sketchfab_Scene",
      "nodes": [
        0
      ]
    }
  ],
  "textures": [
    {
      "sampler": 0,
      "source": 0
    },
    {
      "sampler": 0,
      "source": 1
    }
  ]
}
