{
  "accessors": [
    {
      "bufferView": 2,
      "componentType": 5126,
      "count": 2150,
      "max": [
        16.287059783935547,
        11.476984024047852,
        0.8193926811218262
      ],
      "min": [
        -6.666906356811523,
        -11.476984024047852,
        -1.6301162242889404
      ],
      "type": "VEC3"
    },
    {
      "bufferView": 2,
      "byteOffset": 25800,
      "componentType": 5126,
      "count": 2150,
      "max": [
        1.0,
        1.0,
        1.0
      ],
      "min": [
        -1.0,
        -1.0,
        -1.0
      ],
      "type": "VEC3"
    },
    {
      "bufferView": 3,
      "componentType": 5126,
      "count": 2150,
      "max": [
        1.0,
        1.0,
        1.0,
        1.0
      ],
      "min": [
        -1.0,
        -1.0,
        -1.0,
        -1.0
      ],
      "type": "VEC4"
    },
    {
      "bufferView": 1,
      "componentType": 5126,
      "count": 2150,
      "max": [
        0.9996163845062256,
        1.0
      ],
      "min": [
        0.0,
        -4.48004196132272e-17
      ],
      "type": "VEC2"
    },
    {
      "bufferView": 1,
      "byteOffset": 17200,
      "componentType": 5126,
      "count": 2150,
      "max": [
        0.9996163845062256,
        1.0
      ],
      "min": [
        0.0,
        -4.48004196132272e-17
      ],
      "type": "VEC2"
    },
    {
      "bufferView": 1,
      "byteOffset": 34400,
      "componentType": 5126,
      "count": 2150,
      "max": [
        0.9996163845062256,
        1.0
      ],
      "min": [
        0.0,
        -4.48004196132272e-17
      ],
      "type": "VEC2"
    },
    {
      "bufferView": 1,
      "byteOffset": 51600,
      "componentType": 5126,
      "count": 2150,
      "max": [
        0.9996163845062256,
        1.0
      ],
      "min": [
        0.0,
        -4.48004196132272e-17
      ],
      "type": "VEC2"
    },
    {
      "bufferView": 1,
      "byteOffset": 68800,
      "componentType": 5126,
      "count": 2150,
      "max": [
        0.9996163845062256,
        1.0
      ],
      "min": [
        0.0,
        -4.48004196132272e-17
      ],
      "type": "VEC2"
    },
    {
      "bufferView": 0,
      "componentType": 5125,
      "count": 7032,
      "type": "SCALAR"
    }
  ],
  "asset": {
    "extras": {
      "author": "jurikdesign (https://sketchfab.com/jurikdesign)",
      "license": "CC-BY-4.0 (http://creativecommons.org/licenses/by/4.0/)",
      "source": "https://sketchfab.com/3d-models/jurik-design-signal-floor-light-e42b7116ebf54403af5195ca10563fe3",
      "title": "🚨 Jurik Design – Signal Floor Light"
    },
    "generator": "Sketchfab-16.75.0",
    "version": "2.0"
  },
  "bufferViews": [
    {
      "buffer": 0,
      "byteLength": 28128,
      "name": "floatBufferViews",
      "target": 34963
    },
    {
      "buffer": 0,
      "byteLength": 86000,
      "byteOffset": 28128,
      "byteStride": 8,
      "name": "floatBufferViews",
      "target": 34962
    },
    {
      "buffer": 0,
      "byteLength": 51600,
      "byteOffset": 114128,
      "byteStride": 12,
      "name": "floatBufferViews",
      "target": 34962
    },
    {
      "buffer": 0,
      "byteLength": 34400,
      "byteOffset": 165728,
      "byteStride": 16,
      "name": "floatBufferViews",
      "target": 34962
    }
  ],
  "buffers": [
    {
      "byteLength": 200128,
      "uri": "scene.bin"
    }
  ],
  "extensionsUsed": [
    "KHR_materials_specular"
  ],
  "images": [
    {
      "uri": "textures/RunwayEdgeLightMat_baseColor.jpeg"
    },
    {
      "uri": "textures/RunwayEdgeLightMat_metallicRoughness.png"
    },
    {
      "uri": "textures/RunwayEdgeLightMat_emissive.jpeg"
    },
    {
      "uri": "textures/RunwayEdgeLightMat_normal.png"
    }
  ],
  "materials": [
    {
      "doubleSided": true,
      "emissiveFactor": [
        1.0,
        1.0,
        1.0
      ],
      "emissiveTexture": {
        "index": 2
      },
      "extensions": {
        "KHR_materials_specular": {
          "specularColorFactor": [
            1.0,
            1.0,
            1.0
          ],
          "specularFactor": 1.0
        }
      },
      "name": "RunwayEdgeLightMat",
      "normalTexture": {
        "index": 3
      },
      "occlusionTexture": {
        "index": 1
      },
      "pbrMetallicRoughness": {
        "baseColorTexture": {
          "index": 0
        },
        "metallicRoughnessTexture": {
          "index": 1
        }
      }
    }
  ],
  "meshes": [
    {
      "name": "Object_0",
      "primitives": [
        {
          "attributes": {
            "NORMAL": 1,
            "POSITION": 0,
            "TANGENT": 2,
            "TEXCOORD_0": 3,
            "TEXCOORD_1": 4,
            "TEXCOORD_2": 5,
            "TEXCOORD_3": 6,
            "TEXCOORD_4": 7
          },
          "indices": 8,
          "material": 0,
          "mode": 4
        }
      ]
    }
  ],
  "nodes": [
    {
      "children": [
        1
      ],
      "matrix": [
        2.8428592681884766,
        0.0,
        0.0,
        0.0,
        0.0,
        6.312415630623739e-16,
        -2.8428592681884766,
        0.0,
        0.0,
        2.8428592681884766,
        6.312415630623739e-16,
        0.0,
        0.0,
        0.0,
        0.0,
        1.0
      ],
      "name": "Sketchfab_model"
    },
    {
      "children": [
        2
      ],
      "name": "root"
    },
    {
      "children": [
        3
      ],
      "matrix": [
        1.0,
        0.0,
        0.0,
        0.0,
        0.0,
        2.220446049250313e-16,
        1.0,
        0.0,
        0.0,
        -1.0,
        2.220446049250313e-16,
        0.0,
        0.0,
        0.0,
        0.0,
        1.0
      ],
      "name": "GLTF_SceneRootNode"
    },
    {
      "children": [
        4
      ],
      "matrix": [
        0.009999999776482582,
        0.0,
        0.0,
        0.0,
        0.0,
        -1.6858739316326353e-09,
        0.00999999977648244,
        0.0,
        0.0,
        -0.00999999977648244,
        -1.6858739316326353e-09,
        0.0,
        -0.04810076579451561,
        0.007302603684365749,
        0.0,
        1.0
      ],
      "name": "RunwayEdgeLight_0"
    },
    {
      "mesh": 0,
      "name": "Object_4"
    }
  ],
  "samplers": [
    {
      "magFilter": 9729,
      "minFilter": 9987,
      "wrapS": 10497,
      "wrapT": 10497
    }
  ],
  "scene": 0,
  "scenes": [
    {
      "name": "Sketchfab_Scene",
      "nodes": [
        0
      ]
    }
  ],
  "textures": [
    {
      "sampler": 0,
      "source": 0
    },
    {
      "sampler": 0,
      "source": 1
    },
    {
      "sampler": 0,
      "source": 2
    },
    {
      "sampler": 0,
      "source": 3
    }
  ]
}
