{
  "accessors": [
    {
      "bufferView": 2,
      "componentType": 5126,
      "count": 65533,
      "max": [
        -4.892330169677734,
        5.586510181427002,
        2.8295769691467285
      ],
      "min": [
        -5.262400150299072,
        -5.353789806365967,
        2.3398444652557373
      ],
      "type": "VEC3"
    },
    {
      "bufferView": 2,
      "byteOffset": 786396,
      "componentType": 5126,
      "count": 65533,
      "max": [
        0.9999903440475464,
        0.9919062256813049,
        0.9999940991401672
      ],
      "min": [
        -0.9999687671661377,
        -0.9939514398574829,
        -0.9999979734420776
      ],
      "type": "VEC3"
    },
    {
      "bufferView": 3,
      "componentType": 5126,
      "count": 65533,
      "max": [
        0.9968026280403137,
        0.9999071359634399,
        0.988062858581543,
        1.0
      ],
      "min": [
        -0.9646405577659607,
        -0.9994130730628967,
        -0.9793850779533386,
        -1.0
      ],
      "type": "VEC4"
    },
    {
      "bufferView": 1,
      "componentType": 5126,
      "count": 65533,
      "max": [
        0.9980400204658508,
        0.9549700021743774
      ],
      "min": [
        0.0019499999471008778,
        0.0019499999471008778
      ],
      "type": "VEC2"
    },
    {
      "bufferView": 1,
      "byteOffset": 524264,
      "componentType": 5126,
      "count": 65533,
      "max": [
        0.9980400204658508,
        0.9549700021743774
      ],
      "min": [
        0.0019499999471008778,
        0.0019499999471008778
      ],
      "type": "VEC2"
    },
    {
      "bufferView": 0,
      "componentType": 5125,
      "count": 97923,
      "type": "SCALAR"
    },
    {
      "bufferView": 2,
      "byteOffset": 1572792,
      "componentType": 5126,
      "count": 27883,
      "max": [
        -4.930799961090088,
        1.4861299991607666,
        2.800494432449341
      ],
      "min": [
        -5.241189956665039,
        -1.6376299858093262,
        2.505734443664551
      ],
      "type": "VEC3"
    },
    {
      "bufferView": 2,
      "byteOffset": 1907388,
      "componentType": 5126,
      "count": 27883,
      "max": [
        0.9999839663505554,
        0.6748003363609314,
        0.999995231628418
      ],
      "min": [
        -0.9999715685844421,
        -0.6736878156661987,
        -0.999991238117218
      ],
      "type": "VEC3"
    },
    {
      "bufferView": 3,
      "byteOffset": 1048528,
      "componentType": 5126,
      "count": 27883,
      "max": [
        0.9345235824584961,
        0.9999455213546753,
        0.9506635665893555,
        1.0
      ],
      "min": [
        -0.9624904990196228,
        -0.974005401134491,
        -0.9669017195701599,
        1.0
      ],
      "type": "VEC4"
    },
    {
      "bufferView": 1,
      "byteOffset": 1048528,
      "componentType": 5126,
      "count": 27883,
      "max": [
        0.6766899824142456,
        0.7115799784660339
      ],
      "min": [
        0.3575100004673004,
        0.2092999964952469
      ],
      "type": "VEC2"
    },
    {
      "bufferView": 1,
      "byteOffset": 1271592,
      "componentType": 5126,
      "count": 27883,
      "max": [
        0.6766899824142456,
        0.7115799784660339
      ],
      "min": [
        0.3575100004673004,
        0.2092999964952469
      ],
      "type": "VEC2"
    },
    {
      "bufferView": 0,
      "byteOffset": 391692,
      "componentType": 5125,
      "count": 41823,
      "type": "SCALAR"
    },
    {
      "bufferView": 4,
      "componentType": 5126,
      "count": 1,
      "max": [
        1.0,
        0.0,
        0.0,
        0.0,
        0.0,
        1.0,
        0.0,
        0.0,
        0.0,
        0.0,
        1.0,
        0.0,
        0.0,
        0.0,
        0.0,
        1.0
      ],
      "min": [
        1.0,
        0.0,
        0.0,
        0.0,
        0.0,
        1.0,
        0.0,
        0.0,
        0.0,
        0.0,
        1.0,
        0.0,
        0.0,
        0.0,
        0.0,
        1.0
      ],
      "type": "MAT4"
    }
  ],
  "asset": {
    "extras": {
      "author": "svyART (https://sketchfab.com/svyART)",
      "license": "CC-BY-4.0 (http://creativecommons.org/licenses/by/4.0/)",
      "source": "https://sketchfab.com/3d-models/rope-6429ddecad104f13b45b17062ccb9ed8",
      "title": "Rope"
    },
    "generator": "Sketchfab-12.65.0",
    "version": "2.0"
  },
  "bufferViews": [
    {
      "buffer": 0,
      "byteLength": 558984,
      "name": "floatBufferViews",
      "target": 34963
    },
    {
      "buffer": 0,
      "byteLength": 1494656,
      "byteOffset": 558984,
      "byteStride": 8,
      "name": "floatBufferViews",
      "target": 34962
    },
    {
      "buffer": 0,
      "byteLength": 2241984,
      "byteOffset": 2053640,
      "byteStride": 12,
      "name": "floatBufferViews",
      "target": 34962
    },
    {
      "buffer": 0,
      "byteLength": 1494656,
      "byteOffset": 4295624,
      "byteStride": 16,
      "name": "floatBufferViews",
      "target": 34962
    },
    {
      "buffer": 0,
      "byteLength": 64,
      "byteOffset": 5790280,
      "name": "floatBufferViews"
    }
  ],
  "buffers": [
    {
      "byteLength": 5790344,
      "uri": "scene.bin"
    }
  ],
  "images": [
    {
      "uri": "textures/Roupe_blinn_baseColor.png"
    },
    {
      "uri": "textures/Roupe_blinn_normal.png"
    }
  ],
  "materials": [
    {
      "doubleSided": true,
      "name": "Roupe_blinn",
      "normalTexture": {
        "index": 1
      },
      "pbrMetallicRoughness": {
        "baseColorTexture": {
          "index": 0
        },
        "metallicFactor": 0.0,
        "roughnessFactor": 0.6
      }
    }
  ],
  "meshes": [
    {
      "name": "Object_0",
      "primitives": [
        {
          "attributes": {
            "NORMAL": 1,
            "POSITION": 0,
            "TANGENT": 2,
            "TEXCOORD_0": 3,
            "TEXCOORD_1": 4
          },
          "indices": 5,
          "material": 0,
          "mode": 4
        }
      ]
    },
    {
      "name": "Object_1",
      "primitives": [
        {
          "attributes": {
            "NORMAL": 7,
            "POSITION": 6,
            "TANGENT": 8,
            "TEXCOORD_0": 9,
            "TEXCOORD_1": 10
          },
          "indices": 11,
          "material": 0,
          "mode": 4
        }
      ]
    }
  ],
  "nodes": [
    {
      "children": [
        1
      ],
      "matrix": [
        1.0,
        0.0,
        0.0,
        0.0,
        0.0,
        2.220446049250313e-16,
        -1.0,
        0.0,
        0.0,
        1.0,
        2.220446049250313e-16,
        0.0,
        0.0,
        0.0,
        0.0,
        1.0
      ],
      "name": "Sketchfab_model"
    },
    {
      "children": [
        2
      ],
      "matrix": [
        1.0,
        0.0,
        0.0,
        0.0,
        0.0,
        0.0,
        1.0,
        0.0,
        0.0,
        -1.0,
        0.0,
        0.0,
        0.0,
        0.0,
        0.0,
        1.0
      ],
      "name": "52219b6fa23a4bcc8c827e58870534e5.fbx"
    },
    {
      "children": [
        3
      ],
      "name": "RootNode"
    },
    {
      "children": [
        4,
        5
      ],
      "name": "Object_3"
    },
    {
      "name": "_rootJoint"
    },
    {
      "children": [
        6,
        7
      ],
      "matrix": [
        1.0,
        -4.930380657631324e-32,
        -4.930380657631324e-32,
        0.0,
        4.930380657631325e-32,
        1.0000000000000002,
        -3.469446951953536e-18,
        0.0,
        4.930380657631325e-32,
        3.469446951953536e-18,
        1.0000000000000002,
        0.0,
        5.108290714417833,
        0.07586138726068103,
        -2.732072992782616,
        1.0
      ],
      "name": "Object_5"
    },
    {
      "mesh": 0,
      "name": "Object_6"
    },
    {
      "mesh": 1,
      "name": "Object_7"
    }
  ],
  "samplers": [
    {
      "magFilter": 9729,
      "minFilter": 9987,
      "wrapS": 10497,
      "wrapT": 10497
    }
  ],
  "scene": 0,
  "scenes": [
    {
      "name": "Sketchfab_Scene",
      "nodes": [
        0
      ]
    }
  ],
  "skins": [
    {
      "inverseBindMatrices": 12,
      "joints": [
        4
      ],
      "skeleton": 4
    }
  ],
  "textures": [
    {
      "sampler": 0,
      "source": 0
    },
    {
      "sampler": 0,
      "source": 1
    }
  ]
}
